<svg width="130" height="148" viewBox="0 0 130 148" fill="none" xmlns="http://www.w3.org/2000/svg">
<path d="M127.956 19.8176C127.956 19.8176 122.601 36.9893 122.166 40.7867C121.73 44.5842 113.705 65.0665 113.705 65.0665C113.705 65.0665 103.519 81.2984 81.4405 76.4599C81.4405 76.4599 63.596 72.2607 62.3192 53.1763C62.3192 53.1763 60.7696 42.5091 65.3945 34.7354L115.029 15.7715L127.956 19.8176Z" fill="#19A019"/>
<path d="M124.093 9.22615L127.96 19.818C127.96 19.818 120.739 34.4639 118.789 41.4043C116.84 48.3448 108.721 66.81 96.4561 67.0212C84.1914 67.2325 71.7421 66.6922 65.0149 50.4923C60.5507 39.7381 66.5 32.2834 66.5 32.2834L89.3416 12.8242C89.3416 12.8242 98.9864 5.935 103.379 4.5301C110.187 2.35503 118.634 1.19771 124.093 9.22615Z" fill="#A5F04B"/>
<path d="M99.6027 25.7254C99.6027 25.7254 102.6 27.2735 102.889 27.7463C103.179 28.219 107.488 30.5042 106.327 35.7681C105.165 41.032 103.526 53.2201 92.652 53.9258C81.7784 54.6316 79.097 52.3397 79.097 52.3397C79.097 52.3397 76.9825 49.3831 77.5668 42.6217C78.1511 35.8603 83.4902 31.22 83.4902 31.22C83.4902 31.22 92.4221 21.9194 99.6027 25.7254Z" fill="#9F5C4E"/>
<path d="M101.538 134.423C103.923 132.104 103.677 128.049 101 125.5L73.9999 100.578L67.7908 104.941L92.6907 133.681C95.1595 136.389 99.1695 136.723 101.538 134.423Z" fill="#9E5C4E"/>
<path d="M73.2914 104.996C88.7448 89.9782 87.7714 63.9113 71.1171 46.7733C54.4629 29.6354 28.4344 27.9164 12.981 42.9337C-2.4725 57.951 -1.49906 84.018 15.1552 101.156C31.8095 118.294 57.8379 120.013 73.2914 104.996Z" fill="#9E5C4E"/>
<path d="M67.111 98.6357C79.3976 86.6959 78.624 65.9711 65.3831 52.3457C52.1421 38.7202 31.448 37.3537 19.1614 49.2936C6.8748 61.2334 7.64844 81.9582 20.8894 95.5837C34.1303 109.209 54.8244 110.576 67.111 98.6357Z" fill="#80C0FF"/>
<path fill-rule="evenodd" clip-rule="evenodd" d="M73.3942 89.5014C70.5403 89.3198 67.5311 88.9048 64.3644 88.2108C64.3644 88.2108 36.6388 81.6863 34.6549 52.0341C34.6549 52.0341 34.0086 47.5849 34.3852 41.617C44.9562 39.7921 56.7528 43.4651 65.383 52.3459C75.6676 62.9292 78.4306 77.7954 73.3942 89.5014Z" fill="#3DAF3D"/>
</svg>
