<svg width="130" height="132" viewBox="0 0 130 132" fill="none" xmlns="http://www.w3.org/2000/svg">
<path d="M89.9948 114.571V65.5283L54.9033 37.6069L14.9207 69.2707V118.115L89.9948 114.571Z" fill="#FFE2C2"/>
<path d="M95.0037 73.0128L99.6069 68.9823L54.4467 33L9 68.9823V75.891L54.7346 37.6066L95.0037 73.0128Z" fill="#F4675A"/>
<path d="M33.4497 52.575V41.3491H23.6689V59.7718L33.4497 52.575Z" fill="#F4675A"/>
<path d="M41.9678 116.838L62.95 115.861V92.7227C62.95 89.9384 61.8448 87.2681 59.8774 85.2993C57.9101 83.3304 55.2418 82.2244 52.4596 82.2244C49.6773 82.2244 47.009 83.3304 45.0417 85.2993C43.0743 87.2681 41.9691 89.9384 41.9691 92.7227L41.9678 116.838Z" fill="#F4675A"/>
<path d="M23.501 88.4617H37.8835V72.726H23.501V88.4617Z" fill="#F4675A"/>
<path d="M67.0305 88.4617H81.4131V72.726H67.0305V88.4617Z" fill="#F4675A"/>
<path d="M29.6597 90.5874H31.7239L31.7239 70.6009H29.6597L29.6597 90.5874Z" fill="#FFE2C2"/>
<path d="M74.223 90.5874H76.2871V70.6009H74.223V90.5874Z" fill="#FFE2C2"/>
<path d="M46.0871 103.496C46.9904 103.496 47.7227 102.764 47.7227 101.86C47.7227 100.956 46.9904 100.223 46.0871 100.223C45.1837 100.223 44.4514 100.956 44.4514 101.86C44.4514 102.764 45.1837 103.496 46.0871 103.496Z" fill="#2DBD64"/>
<g clip-path="url(#clip0_1839_18442)">
<path d="M54.8074 70.9615C54.8074 64.055 55.7024 59.5212 62.456 52.0549C64.36 49.9556 52.949 51.4235 54.215 41.9132C55.1687 34.7528 63.8067 32.8716 70.3975 35.8171C70.9193 36.0434 71.4222 36.3111 71.9012 36.6178C76.7637 39.8172 77.5611 36.9595 71.9012 33.5941C63.4031 28.5461 57.3819 31.1336 55.1915 22.4598C49.5868 0.236549 101.308 4.81919 118.772 19.664C120.756 21.2977 122.132 23.5517 122.678 26.0627C125.851 40.6406 99.2441 53.9654 106.831 56.4911C110.632 57.7734 120.79 53.3535 122.675 62.8345C124.559 72.3155 117.376 81.0251 108.719 79.9901C102.564 79.2546 97.6134 73.7508 94.912 74.2911C92.2106 74.8314 90.2122 81.2465 87.8168 82.8933C84.6694 85.0512 88.4091 76.9958 85.4278 76.1821C82.4465 75.3684 81.8932 79.6484 72.6823 82.8933C63.4715 86.1383 54.8074 79.9901 54.8074 70.9615Z" fill="#0F6E55"/>
<mask id="mask0_1839_18442" style="mask-type:alpha" maskUnits="userSpaceOnUse" x="78" y="36" width="23" height="80">
<path d="M83.335 54.3819C83.7483 60.976 84.7052 71.2446 86.658 71.2446C90.2382 71.2446 93.8412 44.6601 96.7151 38.9123C97.672 37.0017 100.295 35.3321 100.295 38.193C100.295 41.0539 91.4718 72.042 90.9543 74.1185C90.235 76.9925 91.9046 85.2432 92.7509 94.5289C93.4246 101.956 95.2505 111.248 96.0967 115.473H85.1576C84.5945 105.341 83.1429 83.2187 81.789 75.1145C80.435 67.0102 77.2324 56.4845 79.4716 54.0011C79.6474 53.8059 79.8166 53.6138 79.9794 53.4218C80.9362 52.2957 83.2406 52.9108 83.335 54.3819Z" fill="white"/>
</mask>
<g mask="url(#mask0_1839_18442)">
<path d="M83.335 54.3819C83.7483 60.976 84.7052 71.2446 86.658 71.2446C90.2382 71.2446 93.8412 44.6601 96.7151 38.9123C97.672 37.0017 100.295 35.3321 100.295 38.193C100.295 41.0539 91.4718 72.042 90.9543 74.1185C90.235 76.9925 91.9046 85.2432 92.7509 94.5289C93.4246 101.956 95.2505 111.248 96.0967 115.473H85.1576C84.5945 105.341 83.1429 83.2187 81.789 75.1145C80.435 67.0102 77.2324 56.4845 79.4716 54.0011C79.6474 53.8059 79.8166 53.6138 79.9794 53.4218C80.9362 52.2957 83.2406 52.9108 83.335 54.3819Z" fill="#F2F2F2"/>
<path d="M81.74 79.7559C81.558 79.7436 81.3875 79.6627 81.263 79.5294C81.1384 79.3962 81.0691 79.2206 81.0691 79.0382C81.0691 78.8558 81.1384 78.6802 81.263 78.547C81.3875 78.4138 81.558 78.3328 81.74 78.3206H84.3438C84.5346 78.3206 84.7175 78.3963 84.8524 78.5312C84.9873 78.6661 85.0631 78.8491 85.0631 79.0398C85.0631 79.2306 84.9873 79.4136 84.8524 79.5485C84.7175 79.6834 84.5346 79.7591 84.3438 79.7591H81.74V79.7559Z" fill="#1E1E23"/>
<path d="M92.3863 87.5184H89.2227C89.0319 87.5184 88.849 87.4426 88.7141 87.3077C88.5792 87.1728 88.5034 86.9899 88.5034 86.7991C88.5034 86.6084 88.5792 86.4254 88.7141 86.2905C88.849 86.1556 89.0319 86.0798 89.2227 86.0798H92.3863C92.5771 86.0798 92.76 86.1556 92.8949 86.2905C93.0298 86.4254 93.1056 86.6084 93.1056 86.7991C93.1056 86.9899 93.0298 87.1728 92.8949 87.3077C92.76 87.4426 92.5771 87.5184 92.3863 87.5184Z" fill="#1E1E23"/>
<path d="M86.7717 96.1401H83.8946C83.7126 96.1278 83.5421 96.0469 83.4175 95.9137C83.2929 95.7804 83.2236 95.6048 83.2236 95.4224C83.2236 95.24 83.2929 95.0644 83.4175 94.9312C83.5421 94.798 83.7126 94.717 83.8946 94.7048H86.7717C86.87 94.6981 86.9687 94.7118 87.0615 94.7448C87.1543 94.7779 87.2393 94.8297 87.3113 94.897C87.3833 94.9643 87.4407 95.0456 87.4799 95.136C87.5191 95.2264 87.5394 95.3239 87.5394 95.4224C87.5394 95.521 87.5191 95.6184 87.4799 95.7088C87.4407 95.7992 87.3833 95.8806 87.3113 95.9479C87.2393 96.0151 87.1543 96.0669 87.0615 96.1C86.9687 96.1331 86.87 96.1467 86.7717 96.1401Z" fill="#1E1E23"/>
<path d="M95.2601 107.359H92.3829C92.2846 107.366 92.186 107.352 92.0931 107.319C92.0003 107.286 91.9153 107.234 91.8433 107.167C91.7713 107.1 91.7139 107.018 91.6747 106.928C91.6355 106.837 91.6152 106.74 91.6152 106.641C91.6152 106.543 91.6355 106.445 91.6747 106.355C91.7139 106.265 91.7713 106.183 91.8433 106.116C91.9153 106.049 92.0003 105.997 92.0931 105.964C92.186 105.931 92.2846 105.917 92.3829 105.924H95.2601C95.3584 105.917 95.457 105.931 95.5498 105.964C95.6426 105.997 95.7277 106.049 95.7996 106.116C95.8716 106.183 95.929 106.265 95.9682 106.355C96.0075 106.445 96.0277 106.543 96.0277 106.641C96.0277 106.74 96.0075 106.837 95.9682 106.928C95.929 107.018 95.8716 107.1 95.7996 107.167C95.7277 107.234 95.6426 107.286 95.5498 107.319C95.457 107.352 95.3584 107.366 95.2601 107.359Z" fill="#1E1E23"/>
</g>
</g>
<defs>
<clipPath id="clip0_1839_18442">
<rect width="69" height="108.708" fill="white" transform="translate(54 7)"/>
</clipPath>
</defs>
</svg>
