<svg width="176" height="95" viewBox="0 0 176 95" fill="none" xmlns="http://www.w3.org/2000/svg">
<path d="M175.319 28.6181C175.319 28.6181 138.135 81.748 44.4642 100.847L17.823 103.427C17.823 103.427 68.9355 34.5341 175.319 28.6181Z" fill="#09B88F"/>
<path d="M81.3969 44.8226C81.3969 44.8226 74.1396 82.6441 29.9519 85.494C-51.816 90.7675 64.6799 49.4085 81.3969 44.8226Z" fill="#66D3AF"/>
<path d="M85.7565 70.4535C92.3001 74.8073 105.171 69.7544 108.904 64.1387C110.751 60.9438 111.991 57.4345 112.561 53.7882C114.246 56.6378 116.447 59.1486 119.051 61.1922C123.845 64.395 132.943 64.6106 137.297 58.0669C141.651 51.5232 137.995 39.5218 133.191 36.3514C130.692 34.9428 127.938 34.043 125.09 33.7041C129.032 31.1982 132.506 28.0216 135.353 24.318C139.224 18.5114 140.363 8.06888 133.802 3.70246C127.241 -0.663967 114.164 4.72911 110.302 10.5034C107.951 14.6956 106.485 19.3253 105.993 24.1065C103.261 18.7023 98.8594 13.5171 95.9885 11.5915C90.683 8.07052 80.9476 7.41837 76.5812 13.9794C72.2148 20.5404 76.7145 33.0224 82.005 36.5458C86.1502 38.8138 90.7706 40.0751 95.4932 40.2279C91.0077 42.7976 87.0532 46.1987 83.8412 50.2492C80.1603 55.9026 79.1954 66.0871 85.7565 70.4535Z" fill="white"/>
<path d="M108.487 32.6682C108.487 32.6682 111.568 25.835 115.095 27.5323C118.623 29.23 116.77 40.6798 109.038 44.8508C109.038 44.8508 101.512 41.7969 100.358 32.4464C99.4173 24.8297 107.744 27.4066 108.487 32.6682Z" fill="#EB426E"/>
<path d="M75.6364 44.1469C76.6539 49.5049 69.9537 56.3359 65.3605 57.206C62.8229 57.5135 60.2505 57.3534 57.7706 56.7338C59.1322 58.5933 60.135 60.6906 60.7274 62.9179C61.4776 66.8071 59.1524 72.6916 53.8084 73.7046C48.4644 74.7175 41.8151 69.1502 41.0698 65.2284C40.8453 63.2644 41.0104 61.2754 41.5556 59.3753C38.8891 61.208 35.9262 62.5665 32.7974 63.3911C28.0503 64.2879 21.0791 62.1912 20.0472 56.8843C19.0154 51.5774 25.9959 44.6324 30.7522 43.7403C34.0604 43.3679 37.4099 43.6807 40.5919 44.6593C37.8759 41.4617 35.7595 37.2493 35.2989 34.9455C34.4825 30.6134 36.6908 24.2251 42.0535 23.1983C47.4163 22.1716 54.1577 28.4288 54.9741 32.7608C55.3091 36.0156 54.8688 39.3034 53.6893 42.3554C56.53 40.1803 59.7656 38.5767 63.2169 37.6335C67.8669 36.6522 74.619 38.7889 75.6364 44.1469Z" fill="white"/>
<path d="M48.9059 49.2902C48.9059 49.2902 45.9275 46.0613 44.2803 47.6584C42.6335 49.2555 45.784 55.2787 50.8557 56.1658C50.8557 56.1658 54.4747 53.0741 53.3846 47.6614C52.497 43.2523 48.3446 46.2271 48.9059 49.2902Z" fill="#EB426E"/>
<path d="M172.708 36.7626C171.656 39.7771 166.259 41.2792 163.675 40.3758C162.299 39.7889 161.041 38.9547 159.965 37.9146C160.111 39.256 160.006 40.6129 159.654 41.9157C158.896 44.1072 155.994 46.4102 152.988 45.3594C149.982 44.3086 148.241 39.5393 149.011 37.3327C149.472 36.2712 150.138 35.3111 150.97 34.5072C149.082 34.6559 147.182 34.4774 145.354 33.9796C142.685 33.0446 139.764 29.9408 140.794 26.948C141.825 23.9552 147.397 22.4773 150.07 23.4174C151.856 24.197 153.463 25.3361 154.79 26.7637C154.349 24.3474 154.509 21.592 154.95 20.2891C155.804 17.8536 158.793 15.261 161.813 16.3103C164.833 17.3595 166.419 22.5055 165.565 24.941C164.782 26.6893 163.596 28.2275 162.105 29.4296C164.182 29.1583 166.292 29.2925 168.318 29.8245C170.963 30.6882 173.761 33.7481 172.708 36.7626Z" fill="white"/>
<path d="M157.649 31.544C157.649 31.544 157.084 29.0351 155.781 29.3626C154.479 29.6903 154.313 33.6665 156.625 35.601C156.625 35.601 159.365 35.0928 160.396 32.0293C161.237 29.5339 158.261 29.8267 157.649 31.544Z" fill="#EB426E"/>
</svg>
